<svg width="20" height="20" viewBox="0 0 20 20" fill="none" xmlns="http://www.w3.org/2000/svg">
<path fill-rule="evenodd" clip-rule="evenodd" d="M2.76365 13.2747L5.30877 12.9841C5.92 12.914 6.52121 13.1244 6.95208 13.5553L8.79579 15.399C11.6315 13.9561 13.9562 11.6414 15.3991 8.79569L13.5453 6.94196C13.1145 6.51109 12.9041 5.90988 12.9742 5.29865L13.2648 2.77357C13.385 1.76153 14.2367 1 15.2588 1H16.9923C18.1246 1 19.0665 1.9419 18.9963 3.07417C18.4653 11.6314 11.6215 18.4652 3.07427 18.9962C1.94199 19.0664 1.0001 18.1245 1.0001 16.9922V15.2587C0.990078 14.2467 1.75161 13.3949 2.76365 13.2747Z" fill="white"/>
</svg>
